# xmcd CD database file
# Copyright (C) 1996 Ti Kan
#
# Track frame offsets:
# 	150
# 	18937
# 	38257
# 	56767
# 	71257
# 	86932
# 	105615
# 	122987
# 	140645
# 	157052
# 	174467
# 	192467
# 	207617
#
# Disc length: 3017 seconds
#
# Revision: 1
# Processed by: cddbd v1.4b41PL1 Copyright (c) Steve Scherf et al.
# Submitted via: DiscPlay 3.3
#
DISCID=bc0bc70d
DTITLE=Bellamy Brothers - Take Me Home
DYEAR=1900
DGENRE=
TTITLE0=Beggars And Heroes
TTITLE1=Take Me Home
TTITLE2=My Indiana Lady
TTITLE3=Miami Moon
TTITLE4=I Wish I Had You
TTITLE5=Changin' Hearts
TTITLE6=Suzanne Suzanne
TTITLE7=Blame It... On The Fire In My Heart
TTITLE8=Blue Highway
TTITLE9=I Love You (More And More)
TTITLE10=Life Is A Beach
TTITLE11=Rockin' Sally
TTITLE12=Lay Ya Down
EXTD=
EXTT0=
EXTT1=
EXTT2=
EXTT3=
EXTT4=
EXTT5=
EXTT6=
EXTT7=
EXTT8=
EXTT9=
EXTT10=
EXTT11=
EXTT12=
PLAYORDER=
